{"title":"Muse Neutron Star Collision(Love Is Forever) 720p Anky","uid":6542143,"size":117835319,"categoryP":"video","categoryS":"music_videos","magnet":"?xt=urn:btih:1dd6cea327d7623fdd547d323ac010b0f56fa312&amp;dn=Muse+Neutron+Star+Collision%28Love+Is+Forever%29+720p+Anky&amp;tr=udp%3A%2F%2Ftracker.openbittorrent.com%3A80&amp;tr=udp%3A%2F%2Fopen.demonii.com%3A1337&amp;tr=udp%3A%2F%2Ftracker.coppersurfer.tk%3A6969&amp;tr=udp%3A%2F%2Fexodus.desync.com%3A6969","seeders":0,"leechers":1,"uploader":"ankygautam","files":2,"time":1310730325,"description":"General\nComplete name                    : Muse - Neutron Star Collision (Love Is Forever) 720p Anky.avi\nFormat                           : AVI\nFormat/Info                      : Audio Video Interleave\nFile size                        : 112 MiB\nDuration                         : 4mn 7s\nOverall bit rate                 : 3 803 Kbps\nWriting application              : Lavf52.0.0\n\nVideo\nFormat                           : xvid\nCodec ID                         : xvid\nDuration                         : 4mn 7s\nBit rate                         : 3 471 Kbps\nWidth                            : 1 280 pixels\nHeight                           : 720 pixels\nDisplay aspect ratio             : 16:9\nFrame rate                       : 25.000 fps\nResolution                       : 24 bits\nBits/(Pixel*Frame)               : 0.151\nStream size                      : 103 MiB (91%)\n\nAudio\nID                               : 1\nFormat                           : MPEG Audio\nFormat version                   : Version 1\nFormat profile                   : Layer 3\nCodec ID                         : 55\nCodec ID/Hint                    : MP3\nDuration                         : 4mn 7s\nBit rate mode                    : Constant\nBit rate                         : 320 Kbps\nChannel(s)                       : 2 channels\nSampling rate                    : 48.0 KHz\nResolution                       : 16 bits\nStream size                      : 9.45 MiB (8%)\nAlignment                        : Aligned on interleaves\nInterleave, duration             : 24 ms (0.60 video frame)\nWriting library                  : LAME3.96.1\n\nScreenShots\n\n &lt;a href=&quot;\nhttp://img.sceper.eu/images/vlcsnahhh.png&quot; rel=&quot;nofollow&quot; target=&quot;_NEW&quot;&gt;\nhttp://img.sceper.eu/images/vlcsnahhh.png&lt;/a&gt;\n &lt;a href=&quot;\nhttp://img.sceper.eu/images/vlcsnatgt.png&quot; rel=&quot;nofollow&quot; target=&quot;_NEW&quot;&gt;\nhttp://img.sceper.eu/images/vlcsnatgt.png&lt;/a&gt;","torrent":{"xt":"urn:btih:1dd6cea327d7623fdd547d323ac010b0f56fa312","amp;dn":"Muse+Neutron+Star+Collision%28Love+Is+Forever%29+720p+Anky","amp;tr":["udp%3A%2F%2Ftracker.openbittorrent.com%3A80","udp%3A%2F%2Fopen.demonii.com%3A1337","udp%3A%2F%2Ftracker.coppersurfer.tk%3A6969","udp%3A%2F%2Fexodus.desync.com%3A6969"],"infoHash":"1dd6cea327d7623fdd547d323ac010b0f56fa312","infoHashBuffer":{"type":"Buffer","data":[29,214,206,163,39,215,98,63,221,84,125,50,58,192,16,176,245,111,163,18]},"announce":[],"urlList":[]}}